<mxfile host="65bd71144e">
    <diagram id="YHvSOUFx3NSuWDXsWDk8" name="PÃ¡gina-1">
        <mxGraphModel dx="4315" dy="4530" grid="1" gridSize="10" guides="1" tooltips="1" connect="1" arrows="1" fold="1" page="1" pageScale="1" pageWidth="1600" pageHeight="900" background="#ffffff" math="0" shadow="0">
            <root>
                <mxCell id="0"/>
                <mxCell id="1" parent="0"/>
                <mxCell id="17" style="edgeStyle=orthogonalEdgeStyle;rounded=1;html=1;exitX=0.75;exitY=0;exitDx=0;exitDy=0;entryX=0.75;entryY=1;entryDx=0;entryDy=0;strokeColor=#424242;strokeWidth=2;fontColor=#424242;endArrow=none;endFill=0;" edge="1" parent="1" source="2" target="9">
                    <mxGeometry relative="1" as="geometry"/>
                </mxCell>
                <mxCell id="2" value="TB_ONG" style="swimlane;childLayout=stackLayout;horizontal=1;startSize=30;horizontalStack=0;rounded=1;fontSize=14;fontStyle=0;strokeWidth=2;resizeParent=0;resizeLast=1;shadow=0;dashed=0;align=center;fillColor=#FFFFFF;fontColor=#424242;strokeColor=#424242;glass=0;swimlaneLine=1;" vertex="1" parent="1">
                    <mxGeometry x="520" y="400" width="280" height="240" as="geometry"/>
                </mxCell>
                <mxCell id="3" value="+ ATRIBUTOS" style="align=left;strokeColor=none;fillColor=none;spacingLeft=20;fontSize=12;verticalAlign=middle;resizable=0;rotatable=0;part=1;fontColor=#424242;spacing=2;spacingTop=20;spacingBottom=20;spacingRight=20;" vertex="1" parent="2">
                    <mxGeometry y="30" width="280" height="210" as="geometry"/>
                </mxCell>
                <mxCell id="6" value="TB_END_ONG" style="swimlane;childLayout=stackLayout;horizontal=1;startSize=30;horizontalStack=0;rounded=1;fontSize=14;fontStyle=0;strokeWidth=2;resizeParent=0;resizeLast=1;shadow=0;dashed=0;align=center;fillColor=#FFFFFF;fontColor=#424242;strokeColor=#424242;glass=0;swimlaneLine=1;" vertex="1" parent="1">
                    <mxGeometry x="320" y="40" width="280" height="240" as="geometry"/>
                </mxCell>
                <mxCell id="7" value="+ ATRIBUTOS" style="align=left;strokeColor=none;fillColor=none;spacingLeft=20;fontSize=12;verticalAlign=middle;resizable=0;rotatable=0;part=1;fontColor=#424242;spacing=2;spacingTop=20;spacingBottom=20;spacingRight=20;" vertex="1" parent="6">
                    <mxGeometry y="30" width="280" height="210" as="geometry"/>
                </mxCell>
                <mxCell id="8" value="TB_TEL_ONG" style="swimlane;childLayout=stackLayout;horizontal=1;startSize=30;horizontalStack=0;rounded=1;fontSize=14;fontStyle=0;strokeWidth=2;resizeParent=0;resizeLast=1;shadow=0;dashed=0;align=center;fillColor=#FFFFFF;fontColor=#424242;strokeColor=#424242;glass=0;swimlaneLine=1;verticalAlign=middle;" vertex="1" parent="1">
                    <mxGeometry x="720" y="40" width="280" height="240" as="geometry"/>
                </mxCell>
                <mxCell id="9" value="+ ATRIBUTOS" style="align=left;strokeColor=none;fillColor=none;spacingLeft=20;fontSize=12;verticalAlign=middle;resizable=0;rotatable=0;part=1;fontColor=#424242;spacing=2;spacingTop=20;spacingBottom=20;spacingRight=20;" vertex="1" parent="8">
                    <mxGeometry y="30" width="280" height="210" as="geometry"/>
                </mxCell>
                <mxCell id="25" style="edgeStyle=orthogonalEdgeStyle;rounded=1;html=1;exitX=0.75;exitY=0;exitDx=0;exitDy=0;entryX=0.75;entryY=1;entryDx=0;entryDy=0;strokeColor=#424242;strokeWidth=2;fontColor=#424242;endArrow=none;endFill=0;" edge="1" parent="1" source="10" target="13">
                    <mxGeometry relative="1" as="geometry"/>
                </mxCell>
                <mxCell id="10" value="TB_COLABORADOR" style="swimlane;childLayout=stackLayout;horizontal=1;startSize=30;horizontalStack=0;rounded=1;fontSize=14;fontStyle=0;strokeWidth=2;resizeParent=0;resizeLast=1;shadow=0;dashed=0;align=center;fillColor=#FFFFFF;fontColor=#424242;strokeColor=#424242;glass=0;swimlaneLine=1;" vertex="1" parent="1">
                    <mxGeometry x="-80" y="40" width="280" height="240" as="geometry"/>
                </mxCell>
                <mxCell id="11" value="+ ATRIBUTOS" style="align=left;strokeColor=none;fillColor=none;spacingLeft=20;fontSize=12;verticalAlign=middle;resizable=0;rotatable=0;part=1;fontColor=#424242;spacing=2;spacingTop=20;spacingBottom=20;spacingRight=20;" vertex="1" parent="10">
                    <mxGeometry y="30" width="280" height="210" as="geometry"/>
                </mxCell>
                <mxCell id="12" value="TB_TEL_COLABORADOR" style="swimlane;childLayout=stackLayout;horizontal=1;startSize=30;horizontalStack=0;rounded=1;fontSize=14;fontStyle=0;strokeWidth=2;resizeParent=0;resizeLast=1;shadow=0;dashed=0;align=center;fillColor=#FFFFFF;fontColor=#424242;strokeColor=#424242;glass=0;swimlaneLine=1;verticalAlign=middle;" vertex="1" parent="1">
                    <mxGeometry x="120" y="-320" width="280" height="240" as="geometry"/>
                </mxCell>
                <mxCell id="13" value="+ ATRIBUTOS" style="align=left;strokeColor=none;fillColor=none;spacingLeft=20;fontSize=12;verticalAlign=middle;resizable=0;rotatable=0;part=1;fontColor=#424242;spacing=2;spacingTop=20;spacingBottom=20;spacingRight=20;" vertex="1" parent="12">
                    <mxGeometry y="30" width="280" height="210" as="geometry"/>
                </mxCell>
                <mxCell id="14" value="TB_END_COLABORADOR" style="swimlane;childLayout=stackLayout;horizontal=1;startSize=30;horizontalStack=0;rounded=1;fontSize=14;fontStyle=0;strokeWidth=2;resizeParent=0;resizeLast=1;shadow=0;dashed=0;align=center;fillColor=#FFFFFF;fontColor=#424242;strokeColor=#424242;glass=0;swimlaneLine=1;" vertex="1" parent="1">
                    <mxGeometry x="-280" y="-320" width="280" height="240" as="geometry"/>
                </mxCell>
                <mxCell id="15" value="+ ATRIBUTOS" style="align=left;strokeColor=none;fillColor=none;spacingLeft=20;fontSize=12;verticalAlign=middle;resizable=0;rotatable=0;part=1;fontColor=#424242;spacing=2;spacingTop=20;spacingBottom=20;spacingRight=20;" vertex="1" parent="14">
                    <mxGeometry y="30" width="280" height="210" as="geometry"/>
                </mxCell>
                <mxCell id="16" style="edgeStyle=orthogonalEdgeStyle;html=1;fontColor=#424242;rounded=1;endArrow=none;endFill=0;strokeColor=#424242;strokeWidth=2;entryX=0.25;entryY=0;entryDx=0;entryDy=0;exitX=0.25;exitY=1;exitDx=0;exitDy=0;" edge="1" parent="1" source="7" target="2">
                    <mxGeometry relative="1" as="geometry">
                        <mxPoint x="630" y="330" as="targetPoint"/>
                    </mxGeometry>
                </mxCell>
                <mxCell id="19" style="edgeStyle=orthogonalEdgeStyle;rounded=1;html=1;entryX=0;entryY=0.25;entryDx=0;entryDy=0;strokeColor=#424242;strokeWidth=2;fontColor=#424242;endArrow=none;endFill=0;exitX=0.25;exitY=1;exitDx=0;exitDy=0;" edge="1" parent="1" source="11" target="3">
                    <mxGeometry relative="1" as="geometry">
                        <mxPoint x="30" y="320" as="sourcePoint"/>
                    </mxGeometry>
                </mxCell>
                <mxCell id="30" style="edgeStyle=orthogonalEdgeStyle;rounded=1;html=1;exitX=0.75;exitY=0;exitDx=0;exitDy=0;entryX=0.25;entryY=1;entryDx=0;entryDy=0;strokeColor=#424242;strokeWidth=2;fontColor=#424242;endArrow=none;endFill=0;" edge="1" parent="1" source="20" target="27">
                    <mxGeometry relative="1" as="geometry"/>
                </mxCell>
                <mxCell id="20" value="TB_CAMPANHA" style="swimlane;childLayout=stackLayout;horizontal=1;startSize=30;horizontalStack=0;rounded=1;fontSize=14;fontStyle=0;strokeWidth=2;resizeParent=0;resizeLast=1;shadow=0;dashed=0;align=center;fillColor=#FFFFFF;fontColor=#424242;strokeColor=#424242;glass=0;swimlaneLine=1;" vertex="1" parent="1">
                    <mxGeometry x="1120" y="40" width="280" height="240" as="geometry"/>
                </mxCell>
                <mxCell id="21" value="+ ATRIBUTOS" style="align=left;strokeColor=none;fillColor=none;spacingLeft=20;fontSize=12;verticalAlign=middle;resizable=0;rotatable=0;part=1;fontColor=#424242;spacing=2;spacingTop=20;spacingBottom=20;spacingRight=20;" vertex="1" parent="20">
                    <mxGeometry y="30" width="280" height="210" as="geometry"/>
                </mxCell>
                <mxCell id="22" style="edgeStyle=orthogonalEdgeStyle;rounded=1;html=1;strokeColor=#424242;strokeWidth=2;fontColor=#424242;endArrow=none;endFill=0;exitX=1;exitY=0.25;exitDx=0;exitDy=0;entryX=0.75;entryY=1;entryDx=0;entryDy=0;" edge="1" parent="1" source="3" target="21">
                    <mxGeometry relative="1" as="geometry">
                        <mxPoint x="1060" y="320" as="targetPoint"/>
                    </mxGeometry>
                </mxCell>
                <mxCell id="24" style="edgeStyle=orthogonalEdgeStyle;rounded=1;html=1;exitX=0.25;exitY=1;exitDx=0;exitDy=0;entryX=0.25;entryY=0;entryDx=0;entryDy=0;strokeColor=#424242;strokeWidth=2;fontColor=#424242;endArrow=none;endFill=0;" edge="1" parent="1" source="15" target="10">
                    <mxGeometry relative="1" as="geometry"/>
                </mxCell>
                <mxCell id="26" value="TB_DOACAO" style="swimlane;childLayout=stackLayout;horizontal=1;startSize=30;horizontalStack=0;rounded=1;fontSize=14;fontStyle=0;strokeWidth=2;resizeParent=0;resizeLast=1;shadow=0;dashed=0;align=center;fillColor=#FFFFFF;fontColor=#424242;strokeColor=#424242;glass=0;swimlaneLine=1;" vertex="1" parent="1">
                    <mxGeometry x="1120" y="-320" width="280" height="240" as="geometry"/>
                </mxCell>
                <mxCell id="27" value="+ ATRIBUTOS" style="align=left;strokeColor=none;fillColor=none;spacingLeft=20;fontSize=12;verticalAlign=middle;resizable=0;rotatable=0;part=1;fontColor=#424242;spacing=2;spacingTop=20;spacingBottom=20;spacingRight=20;" vertex="1" parent="26">
                    <mxGeometry y="30" width="280" height="210" as="geometry"/>
                </mxCell>
                <mxCell id="28" value="TB_DOADOR" style="swimlane;childLayout=stackLayout;horizontal=1;startSize=30;horizontalStack=0;rounded=1;fontSize=14;fontStyle=0;strokeWidth=2;resizeParent=0;resizeLast=1;shadow=0;dashed=0;align=center;fillColor=#FFFFFF;fontColor=#424242;strokeColor=#424242;glass=0;swimlaneLine=1;" vertex="1" parent="1">
                    <mxGeometry x="1520" y="-320" width="280" height="240" as="geometry"/>
                </mxCell>
                <mxCell id="29" value="+ ATRIBUTOS" style="align=left;strokeColor=none;fillColor=none;spacingLeft=20;fontSize=12;verticalAlign=middle;resizable=0;rotatable=0;part=1;fontColor=#424242;spacing=2;spacingTop=20;spacingBottom=20;spacingRight=20;" vertex="1" parent="28">
                    <mxGeometry y="30" width="280" height="210" as="geometry"/>
                </mxCell>
                <mxCell id="31" style="edgeStyle=orthogonalEdgeStyle;rounded=1;html=1;exitX=1;exitY=0.25;exitDx=0;exitDy=0;entryX=0;entryY=0.25;entryDx=0;entryDy=0;strokeColor=#424242;strokeWidth=2;fontColor=#424242;endArrow=none;endFill=0;" edge="1" parent="1" source="27" target="29">
                    <mxGeometry relative="1" as="geometry"/>
                </mxCell>
                <mxCell id="32" value="TB_CONSULTA" style="swimlane;childLayout=stackLayout;horizontal=1;startSize=30;horizontalStack=0;rounded=1;fontSize=14;fontStyle=0;strokeWidth=2;resizeParent=0;resizeLast=1;shadow=0;dashed=0;align=center;fillColor=#FFFFFF;fontColor=#424242;strokeColor=#424242;glass=0;swimlaneLine=1;" vertex="1" parent="1">
                    <mxGeometry x="1120" y="760" width="280" height="240" as="geometry"/>
                </mxCell>
                <mxCell id="33" value="+ ATRIBUTOS" style="align=left;strokeColor=none;fillColor=none;spacingLeft=20;fontSize=12;verticalAlign=middle;resizable=0;rotatable=0;part=1;fontColor=#424242;spacing=2;spacingTop=20;spacingBottom=20;spacingRight=20;" vertex="1" parent="32">
                    <mxGeometry y="30" width="280" height="210" as="geometry"/>
                </mxCell>
                <mxCell id="35" value="TB_ESTOQUE" style="swimlane;childLayout=stackLayout;horizontal=1;startSize=30;horizontalStack=0;rounded=1;fontSize=14;fontStyle=0;strokeWidth=2;resizeParent=0;resizeLast=1;shadow=0;dashed=0;align=center;fillColor=#FFFFFF;fontColor=#424242;strokeColor=#424242;glass=0;swimlaneLine=1;" vertex="1" parent="1">
                    <mxGeometry x="720" y="760" width="280" height="240" as="geometry"/>
                </mxCell>
                <mxCell id="36" value="+ ATRIBUTOS" style="align=left;strokeColor=none;fillColor=none;spacingLeft=20;fontSize=12;verticalAlign=middle;resizable=0;rotatable=0;part=1;fontColor=#424242;spacing=2;spacingTop=20;spacingBottom=20;spacingRight=20;" vertex="1" parent="35">
                    <mxGeometry y="30" width="280" height="210" as="geometry"/>
                </mxCell>
                <mxCell id="37" style="edgeStyle=orthogonalEdgeStyle;rounded=1;html=1;exitX=0.75;exitY=1;exitDx=0;exitDy=0;entryX=0.75;entryY=0;entryDx=0;entryDy=0;strokeColor=#424242;strokeWidth=2;fontColor=#424242;endArrow=none;endFill=0;" edge="1" parent="1" source="3" target="35">
                    <mxGeometry relative="1" as="geometry"/>
                </mxCell>
                <mxCell id="38" value="TB_PRODUTO" style="swimlane;childLayout=stackLayout;horizontal=1;startSize=30;horizontalStack=0;rounded=1;fontSize=14;fontStyle=0;strokeWidth=2;resizeParent=0;resizeLast=1;shadow=0;dashed=0;align=center;fillColor=#FFFFFF;fontColor=#424242;strokeColor=#424242;glass=0;swimlaneLine=1;" vertex="1" parent="1">
                    <mxGeometry x="720" y="1120" width="280" height="240" as="geometry"/>
                </mxCell>
                <mxCell id="39" value="+ ATRIBUTOS" style="align=left;strokeColor=none;fillColor=none;spacingLeft=20;fontSize=12;verticalAlign=middle;resizable=0;rotatable=0;part=1;fontColor=#424242;spacing=2;spacingTop=20;spacingBottom=20;spacingRight=20;" vertex="1" parent="38">
                    <mxGeometry y="30" width="280" height="210" as="geometry"/>
                </mxCell>
                <mxCell id="40" value="TB_TIPO_PRODUTO" style="swimlane;childLayout=stackLayout;horizontal=1;startSize=30;horizontalStack=0;rounded=1;fontSize=14;fontStyle=0;strokeWidth=2;resizeParent=0;resizeLast=1;shadow=0;dashed=0;align=center;fillColor=#FFFFFF;fontColor=#424242;strokeColor=#424242;glass=0;swimlaneLine=1;" vertex="1" parent="1">
                    <mxGeometry x="720" y="1480" width="280" height="240" as="geometry"/>
                </mxCell>
                <mxCell id="41" value="+ ATRIBUTOS" style="align=left;strokeColor=none;fillColor=none;spacingLeft=20;fontSize=12;verticalAlign=middle;resizable=0;rotatable=0;part=1;fontColor=#424242;spacing=2;spacingTop=20;spacingBottom=20;spacingRight=20;" vertex="1" parent="40">
                    <mxGeometry y="30" width="280" height="210" as="geometry"/>
                </mxCell>
                <mxCell id="42" style="edgeStyle=orthogonalEdgeStyle;rounded=1;html=1;exitX=0.75;exitY=1;exitDx=0;exitDy=0;entryX=0.25;entryY=0;entryDx=0;entryDy=0;strokeColor=#424242;strokeWidth=2;fontColor=#424242;endArrow=none;endFill=0;" edge="1" parent="1" source="36" target="38">
                    <mxGeometry relative="1" as="geometry"/>
                </mxCell>
                <mxCell id="43" style="edgeStyle=orthogonalEdgeStyle;rounded=1;html=1;exitX=0.25;exitY=1;exitDx=0;exitDy=0;entryX=0.75;entryY=0;entryDx=0;entryDy=0;strokeColor=#424242;strokeWidth=2;fontColor=#424242;endArrow=none;endFill=0;" edge="1" parent="1" source="39" target="40">
                    <mxGeometry relative="1" as="geometry"/>
                </mxCell>
                <mxCell id="44" value="TB_PROCEDIMENTO" style="swimlane;childLayout=stackLayout;horizontal=1;startSize=30;horizontalStack=0;rounded=1;fontSize=14;fontStyle=0;strokeWidth=2;resizeParent=0;resizeLast=1;shadow=0;dashed=0;align=center;fillColor=#FFFFFF;fontColor=#424242;strokeColor=#424242;glass=0;swimlaneLine=1;" vertex="1" parent="1">
                    <mxGeometry x="1520" y="760" width="280" height="240" as="geometry"/>
                </mxCell>
                <mxCell id="45" value="+ ATRIBUTOS" style="align=left;strokeColor=none;fillColor=none;spacingLeft=20;fontSize=12;verticalAlign=middle;resizable=0;rotatable=0;part=1;fontColor=#424242;spacing=2;spacingTop=20;spacingBottom=20;spacingRight=20;" vertex="1" parent="44">
                    <mxGeometry y="30" width="280" height="210" as="geometry"/>
                </mxCell>
                <mxCell id="46" value="TB_TIPO_PROCEDIMENTO" style="swimlane;childLayout=stackLayout;horizontal=1;startSize=30;horizontalStack=0;rounded=1;fontSize=14;fontStyle=0;strokeWidth=2;resizeParent=0;resizeLast=1;shadow=0;dashed=0;align=center;fillColor=#FFFFFF;fontColor=#424242;strokeColor=#424242;glass=0;swimlaneLine=1;" vertex="1" parent="1">
                    <mxGeometry x="1920" y="760" width="280" height="240" as="geometry"/>
                </mxCell>
                <mxCell id="47" value="+ ATRIBUTOS" style="align=left;strokeColor=none;fillColor=none;spacingLeft=20;fontSize=12;verticalAlign=middle;resizable=0;rotatable=0;part=1;fontColor=#424242;spacing=2;spacingTop=20;spacingBottom=20;spacingRight=20;" vertex="1" parent="46">
                    <mxGeometry y="30" width="280" height="210" as="geometry"/>
                </mxCell>
                <mxCell id="48" value="TB_HOSPITAL_VET" style="swimlane;childLayout=stackLayout;horizontal=1;startSize=30;horizontalStack=0;rounded=1;fontSize=14;fontStyle=0;strokeWidth=2;resizeParent=0;resizeLast=1;shadow=0;dashed=0;align=center;fillColor=#FFFFFF;fontColor=#424242;strokeColor=#424242;glass=0;swimlaneLine=1;" vertex="1" parent="1">
                    <mxGeometry x="1120" y="1120" width="280" height="240" as="geometry"/>
                </mxCell>
                <mxCell id="49" value="+ ATRIBUTOS" style="align=left;strokeColor=none;fillColor=none;spacingLeft=20;fontSize=12;verticalAlign=middle;resizable=0;rotatable=0;part=1;fontColor=#424242;spacing=2;spacingTop=20;spacingBottom=20;spacingRight=20;" vertex="1" parent="48">
                    <mxGeometry y="30" width="280" height="210" as="geometry"/>
                </mxCell>
                <mxCell id="89" value="+ ATRIBUTOS" style="align=left;strokeColor=none;fillColor=none;spacingLeft=20;fontSize=12;verticalAlign=middle;resizable=0;rotatable=0;part=1;fontColor=#424242;spacing=2;spacingTop=20;spacingBottom=20;spacingRight=20;" vertex="1" parent="48">
                    <mxGeometry y="240" width="280" as="geometry"/>
                </mxCell>
                <mxCell id="50" value="TB_TEL_HOSPITAL" style="swimlane;childLayout=stackLayout;horizontal=1;startSize=30;horizontalStack=0;rounded=1;fontSize=14;fontStyle=0;strokeWidth=2;resizeParent=0;resizeLast=1;shadow=0;dashed=0;align=center;fillColor=#FFFFFF;fontColor=#424242;strokeColor=#424242;glass=0;swimlaneLine=1;" vertex="1" parent="1">
                    <mxGeometry x="1520" y="1120" width="280" height="240" as="geometry"/>
                </mxCell>
                <mxCell id="51" value="+ ATRIBUTOS" style="align=left;strokeColor=none;fillColor=none;spacingLeft=20;fontSize=12;verticalAlign=middle;resizable=0;rotatable=0;part=1;fontColor=#424242;spacing=2;spacingTop=20;spacingBottom=20;spacingRight=20;" vertex="1" parent="50">
                    <mxGeometry y="30" width="280" height="210" as="geometry"/>
                </mxCell>
                <mxCell id="52" value="TB_END_HOSPITAL" style="swimlane;childLayout=stackLayout;horizontal=1;startSize=30;horizontalStack=0;rounded=1;fontSize=14;fontStyle=0;strokeWidth=2;resizeParent=0;resizeLast=1;shadow=0;dashed=0;align=center;fillColor=#FFFFFF;fontColor=#424242;strokeColor=#424242;glass=0;swimlaneLine=1;" vertex="1" parent="1">
                    <mxGeometry x="1120" y="1480" width="280" height="240" as="geometry"/>
                </mxCell>
                <mxCell id="53" value="+ ATRIBUTOS" style="align=left;strokeColor=none;fillColor=none;spacingLeft=20;fontSize=12;verticalAlign=middle;resizable=0;rotatable=0;part=1;fontColor=#424242;spacing=2;spacingTop=20;spacingBottom=20;spacingRight=20;" vertex="1" parent="52">
                    <mxGeometry y="30" width="280" height="210" as="geometry"/>
                </mxCell>
                <mxCell id="54" style="edgeStyle=orthogonalEdgeStyle;rounded=1;html=1;exitX=1;exitY=0.25;exitDx=0;exitDy=0;entryX=0;entryY=0.25;entryDx=0;entryDy=0;strokeColor=#424242;strokeWidth=2;fontColor=#424242;endArrow=none;endFill=0;" edge="1" parent="1" source="33" target="45">
                    <mxGeometry relative="1" as="geometry"/>
                </mxCell>
                <mxCell id="56" style="edgeStyle=orthogonalEdgeStyle;rounded=1;html=1;exitX=1;exitY=0.25;exitDx=0;exitDy=0;entryX=0;entryY=0.25;entryDx=0;entryDy=0;strokeColor=#424242;strokeWidth=2;fontColor=#424242;endArrow=none;endFill=0;" edge="1" parent="1" source="45" target="47">
                    <mxGeometry relative="1" as="geometry"/>
                </mxCell>
                <mxCell id="58" style="edgeStyle=orthogonalEdgeStyle;rounded=1;html=1;exitX=0.25;exitY=1;exitDx=0;exitDy=0;entryX=0.75;entryY=0;entryDx=0;entryDy=0;strokeColor=#424242;strokeWidth=2;fontColor=#424242;endArrow=none;endFill=0;" edge="1" parent="1" source="49" target="52">
                    <mxGeometry relative="1" as="geometry"/>
                </mxCell>
                <mxCell id="59" value="TB_GATO" style="swimlane;childLayout=stackLayout;horizontal=1;startSize=30;horizontalStack=0;rounded=1;fontSize=14;fontStyle=0;strokeWidth=2;resizeParent=0;resizeLast=1;shadow=0;dashed=0;align=center;fillColor=#FFFFFF;fontColor=#424242;strokeColor=#424242;glass=0;swimlaneLine=1;" vertex="1" parent="1">
                    <mxGeometry x="-80" y="760" width="280" height="240" as="geometry"/>
                </mxCell>
                <mxCell id="60" value="+ ATRIBUTOS" style="align=left;strokeColor=none;fillColor=none;spacingLeft=20;fontSize=12;verticalAlign=middle;resizable=0;rotatable=0;part=1;fontColor=#424242;spacing=2;spacingTop=20;spacingBottom=20;spacingRight=20;" vertex="1" parent="59">
                    <mxGeometry y="30" width="280" height="210" as="geometry"/>
                </mxCell>
                <mxCell id="73" style="edgeStyle=orthogonalEdgeStyle;rounded=1;html=1;exitX=0.25;exitY=0;exitDx=0;exitDy=0;entryX=0.25;entryY=1;entryDx=0;entryDy=0;strokeColor=#424242;strokeWidth=2;fontColor=#424242;endArrow=none;endFill=0;" edge="1" parent="1" source="62" target="3">
                    <mxGeometry relative="1" as="geometry"/>
                </mxCell>
                <mxCell id="62" value="TB_CAIXA" style="swimlane;childLayout=stackLayout;horizontal=1;startSize=30;horizontalStack=0;rounded=1;fontSize=14;fontStyle=0;strokeWidth=2;resizeParent=0;resizeLast=1;shadow=0;dashed=0;align=center;fillColor=#FFFFFF;fontColor=#424242;strokeColor=#424242;glass=0;swimlaneLine=1;" vertex="1" parent="1">
                    <mxGeometry x="320" y="760" width="280" height="240" as="geometry"/>
                </mxCell>
                <mxCell id="63" value="+ ATRIBUTOS" style="align=left;strokeColor=none;fillColor=none;spacingLeft=20;fontSize=12;verticalAlign=middle;resizable=0;rotatable=0;part=1;fontColor=#424242;spacing=2;spacingTop=20;spacingBottom=20;spacingRight=20;" vertex="1" parent="62">
                    <mxGeometry y="30" width="280" height="210" as="geometry"/>
                </mxCell>
                <mxCell id="70" style="edgeStyle=orthogonalEdgeStyle;rounded=1;html=1;exitX=1;exitY=0.75;exitDx=0;exitDy=0;entryX=0.75;entryY=0;entryDx=0;entryDy=0;strokeColor=#424242;strokeWidth=2;fontColor=#424242;endArrow=none;endFill=0;" edge="1" parent="1" source="3" target="32">
                    <mxGeometry relative="1" as="geometry"/>
                </mxCell>
                <mxCell id="71" style="edgeStyle=orthogonalEdgeStyle;rounded=1;html=1;exitX=0.75;exitY=1;exitDx=0;exitDy=0;entryX=0.25;entryY=0;entryDx=0;entryDy=0;strokeColor=#424242;strokeWidth=2;fontColor=#424242;endArrow=none;endFill=0;" edge="1" parent="1" source="33" target="48">
                    <mxGeometry relative="1" as="geometry"/>
                </mxCell>
                <mxCell id="72" style="edgeStyle=orthogonalEdgeStyle;rounded=1;html=1;exitX=1;exitY=0.25;exitDx=0;exitDy=0;entryX=0;entryY=0.25;entryDx=0;entryDy=0;strokeColor=#424242;strokeWidth=2;fontColor=#424242;endArrow=none;endFill=0;" edge="1" parent="1" source="49" target="51">
                    <mxGeometry relative="1" as="geometry"/>
                </mxCell>
                <mxCell id="74" style="edgeStyle=orthogonalEdgeStyle;rounded=1;html=1;exitX=0;exitY=0.75;exitDx=0;exitDy=0;entryX=0.25;entryY=0;entryDx=0;entryDy=0;strokeColor=#424242;strokeWidth=2;fontColor=#424242;endArrow=none;endFill=0;" edge="1" parent="1" source="3" target="59">
                    <mxGeometry relative="1" as="geometry"/>
                </mxCell>
                <mxCell id="75" value="TB_ADOCAO" style="swimlane;childLayout=stackLayout;horizontal=1;startSize=30;horizontalStack=0;rounded=1;fontSize=14;fontStyle=0;strokeWidth=2;resizeParent=0;resizeLast=1;shadow=0;dashed=0;align=center;fillColor=#FFFFFF;fontColor=#424242;strokeColor=#424242;glass=0;swimlaneLine=1;" vertex="1" parent="1">
                    <mxGeometry x="-80" y="1120" width="280" height="240" as="geometry"/>
                </mxCell>
                <mxCell id="76" value="+ ATRIBUTOS" style="align=left;strokeColor=none;fillColor=none;spacingLeft=20;fontSize=12;verticalAlign=middle;resizable=0;rotatable=0;part=1;fontColor=#424242;spacing=2;spacingTop=20;spacingBottom=20;spacingRight=20;" vertex="1" parent="75">
                    <mxGeometry y="30" width="280" height="210" as="geometry"/>
                </mxCell>
                <mxCell id="77" value="TB_ADOTANTE" style="swimlane;childLayout=stackLayout;horizontal=1;startSize=30;horizontalStack=0;rounded=1;fontSize=14;fontStyle=0;strokeWidth=2;resizeParent=0;resizeLast=1;shadow=0;dashed=0;align=center;fillColor=#FFFFFF;fontColor=#424242;strokeColor=#424242;glass=0;swimlaneLine=1;" vertex="1" parent="1">
                    <mxGeometry x="-480" y="1120" width="280" height="240" as="geometry"/>
                </mxCell>
                <mxCell id="78" value="+ ATRIBUTOS" style="align=left;strokeColor=none;fillColor=none;spacingLeft=20;fontSize=12;verticalAlign=middle;resizable=0;rotatable=0;part=1;fontColor=#424242;spacing=2;spacingTop=20;spacingBottom=20;spacingRight=20;" vertex="1" parent="77">
                    <mxGeometry y="30" width="280" height="210" as="geometry"/>
                </mxCell>
                <mxCell id="79" value="TB_END_ADOTANTE" style="swimlane;childLayout=stackLayout;horizontal=1;startSize=30;horizontalStack=0;rounded=1;fontSize=14;fontStyle=0;strokeWidth=2;resizeParent=0;resizeLast=1;shadow=0;dashed=0;align=center;fillColor=#FFFFFF;fontColor=#424242;strokeColor=#424242;glass=0;swimlaneLine=1;" vertex="1" parent="1">
                    <mxGeometry x="-480" y="1480" width="280" height="240" as="geometry"/>
                </mxCell>
                <mxCell id="80" value="+ ATRIBUTOS" style="align=left;strokeColor=none;fillColor=none;spacingLeft=20;fontSize=12;verticalAlign=middle;resizable=0;rotatable=0;part=1;fontColor=#424242;spacing=2;spacingTop=20;spacingBottom=20;spacingRight=20;" vertex="1" parent="79">
                    <mxGeometry y="30" width="280" height="210" as="geometry"/>
                </mxCell>
                <mxCell id="81" value="TB_TEL_ADOTANTE" style="swimlane;childLayout=stackLayout;horizontal=1;startSize=30;horizontalStack=0;rounded=1;fontSize=14;fontStyle=0;strokeWidth=2;resizeParent=0;resizeLast=1;shadow=0;dashed=0;align=center;fillColor=#FFFFFF;fontColor=#424242;strokeColor=#424242;glass=0;swimlaneLine=1;" vertex="1" parent="1">
                    <mxGeometry x="-880" y="1120" width="280" height="240" as="geometry"/>
                </mxCell>
                <mxCell id="82" value="+ ATRIBUTOS" style="align=left;strokeColor=none;fillColor=none;spacingLeft=20;fontSize=12;verticalAlign=middle;resizable=0;rotatable=0;part=1;fontColor=#424242;spacing=2;spacingTop=20;spacingBottom=20;spacingRight=20;" vertex="1" parent="81">
                    <mxGeometry y="30" width="280" height="210" as="geometry"/>
                </mxCell>
                <mxCell id="83" style="edgeStyle=orthogonalEdgeStyle;rounded=1;html=1;exitX=0.25;exitY=1;exitDx=0;exitDy=0;entryX=0.75;entryY=0;entryDx=0;entryDy=0;strokeColor=#424242;strokeWidth=2;fontColor=#424242;endArrow=none;endFill=0;" edge="1" parent="1" source="60" target="75">
                    <mxGeometry relative="1" as="geometry"/>
                </mxCell>
                <mxCell id="84" style="edgeStyle=orthogonalEdgeStyle;rounded=1;html=1;exitX=0;exitY=0.25;exitDx=0;exitDy=0;entryX=1;entryY=0.25;entryDx=0;entryDy=0;strokeColor=#424242;strokeWidth=2;fontColor=#424242;endArrow=none;endFill=0;" edge="1" parent="1" source="76" target="78">
                    <mxGeometry relative="1" as="geometry"/>
                </mxCell>
                <mxCell id="85" style="edgeStyle=orthogonalEdgeStyle;rounded=1;html=1;exitX=0;exitY=0.25;exitDx=0;exitDy=0;entryX=1;entryY=0.25;entryDx=0;entryDy=0;strokeColor=#424242;strokeWidth=2;fontColor=#424242;endArrow=none;endFill=0;" edge="1" parent="1" source="78" target="82">
                    <mxGeometry relative="1" as="geometry"/>
                </mxCell>
                <mxCell id="87" style="edgeStyle=orthogonalEdgeStyle;rounded=1;html=1;exitX=0.75;exitY=1;exitDx=0;exitDy=0;entryX=0.25;entryY=0;entryDx=0;entryDy=0;strokeColor=#424242;strokeWidth=2;fontColor=#424242;endArrow=none;endFill=0;" edge="1" parent="1" source="78" target="79">
                    <mxGeometry relative="1" as="geometry"/>
                </mxCell>
            </root>
        </mxGraphModel>
    </diagram>
</mxfile>